<svg width="14" height="13" viewBox="0 0 14 13" fill="none" xmlns="http://www.w3.org/2000/svg">
<path d="M3.22991 1.44961C3.22972 1.81557 3.08417 2.16647 2.82527 2.42511C2.56637 2.68375 2.21533 2.82895 1.84937 2.82877C1.48341 2.82858 1.13252 2.68303 0.873874 2.42413C0.615233 2.16523 0.470032 1.81419 0.470215 1.44823C0.470398 1.08227 0.61595 0.731378 0.87485 0.472736C1.13375 0.214094 1.48479 0.0688937 1.85075 0.0690767C2.21671 0.0692597 2.5676 0.214811 2.82625 0.473712C3.08489 0.732612 3.23009 1.08365 3.22991 1.44961ZM3.2713 3.85054H0.51161V12.4884H3.2713V3.85054ZM7.63161 3.85054H4.88572V12.4884H7.60401V7.95558C7.60401 5.43046 10.8949 5.19589 10.8949 7.95558V12.4884H13.6201V7.01729C13.6201 2.76046 8.74928 2.91915 7.60401 5.00961L7.63161 3.85054Z" fill="#F8F8F8"/>
</svg>
